# MagicaVoxel @ Ephtracy

# group
o 

# material
mtllib Gun.mtl
usemtl palette

# normals
vn 0 1 0
vn 0 -1 0
vn 0 0 1
vn 0 0 -1
vn -1 0 0
vn 1 0 0

# texcoords
vt 0.302734 0.5
vt 0.306641 0.5
vt 0.982422 0.5
vt 0.986328 0.5

# verts
v -4 0.8 0
v -4 0.8 -0.1
v -3.9 0.8 0
v -3.9 0.8 -0.1
v -3.8 0.8 0
v -3.8 0.8 -0.1
v -3.7 0.8 0
v -3.7 0.8 -0.1
v -3.6 0.8 0
v -3.6 0.8 -0.1
v -3.5 0.8 0
v -3.5 0.8 -0.1
v -3.4 0.8 0
v -3.4 0.8 -0.1
v -3.3 0.8 0
v -3.3 0.8 -0.1
v -3.2 0.8 0
v -3.2 0.8 -0.1
v -3.1 0.8 0
v -3.1 0.8 -0.1
v -3 0.8 0
v -3 0.8 -0.1
v -2.9 0.8 0
v -2.9 0.8 -0.1
v -2.8 0.8 0
v -2.8 0.8 -0.1
v -2.7 0.8 0
v -2.7 0.8 -0.1
v -2.5 0.8 0
v -2.5 0.8 -0.1
v -2 0.8 0
v -2 0.8 -0.1
v -4.5 0.7 0
v -4.5 0.7 -0.1
v -4.4 0.7 0
v -4.4 0.7 -0.1
v -4.3 0.7 0
v -4.3 0.7 -0.1
v -4.2 0.7 0
v -4.2 0.7 -0.1
v -4.1 0.7 0.1
v -4.1 0.7 0
v -4.1 0.7 -0.1
v -4.1 0.7 -0.2
v -4 0.7 0
v -4 0.7 -0.1
v -3.9 0.7 0
v -3.9 0.7 -0.1
v -3.8 0.7 0
v -3.8 0.7 -0.1
v -3.7 0.7 0
v -3.7 0.7 -0.1
v -3.6 0.7 0
v -3.6 0.7 -0.1
v -3.5 0.7 0
v -3.5 0.7 -0.1
v -3.4 0.7 0
v -3.4 0.7 -0.1
v -3.3 0.7 0
v -3.3 0.7 -0.1
v -3.2 0.7 0
v -3.2 0.7 -0.1
v -3.1 0.7 0
v -3.1 0.7 -0.1
v -3 0.7 0
v -3 0.7 -0.1
v -2.9 0.7 0
v -2.9 0.7 -0.1
v -2.8 0.7 0
v -2.8 0.7 -0.1
v -2.7 0.7 0.1
v -2.7 0.7 0
v -2.7 0.7 -0.1
v -2.7 0.7 -0.2
v -2.5 0.7 0
v -2.5 0.7 -0.1
v -2.7 0.3 0
v -2.7 0.3 -0.1
v -2.6 0.3 0
v -2.6 0.3 -0.1
v -3.4 0.2 0
v -3.4 0.2 -0.1
v -3.3 0.2 0
v -3.3 0.2 -0.1
v -4.5 0.6 0
v -4.5 0.6 -0.1
v -4.4 0.6 0
v -4.4 0.6 -0.1
v -4.3 0.6 0
v -4.3 0.6 -0.1
v -4.2 0.6 0
v -4.2 0.6 -0.1
v -4.1 0.6 0.1
v -4.1 0.6 0
v -4.1 0.6 -0.1
v -4.1 0.6 -0.2
v -3.7 0.6 0.1
v -3.7 0.6 0
v -3.7 0.6 -0.1
v -3.7 0.6 -0.2
v -2.1 0.6 0
v -2.1 0.6 -0.1
v -2 0.6 0
v -2 0.6 -0.1
v -4.2 0.5 0
v -4.2 0.5 -0.1
v -3.8 0.5 0
v -3.8 0.5 -0.1
v -3.7 0.5 0.1
v -3.7 0.5 0
v -3.7 0.5 -0.1
v -3.7 0.5 -0.2
v -3.2 0.5 0.1
v -3.2 0.5 0
v -3.2 0.5 -0.1
v -3.2 0.5 -0.2
v -2.9 0.5 0
v -2.9 0.5 -0.1
v -2.7 0.5 0.1
v -2.7 0.5 0
v -2.7 0.5 -0.1
v -2.7 0.5 -0.2
v -3.8 0.4 0
v -3.8 0.4 -0.1
v -3.3 0.4 0
v -3.3 0.4 -0.1
v -3 0.4 0
v -3 0.4 -0.1
v -2.9 0.4 0
v -2.9 0.4 -0.1
v -2.8 0.4 0
v -2.8 0.4 -0.1
v -2.7 0.4 0
v -2.7 0.4 -0.1
v -2.6 0.4 0
v -2.6 0.4 -0.1
v -2.5 0.4 0
v -2.5 0.4 -0.1
v -2.4 0.4 0
v -2.4 0.4 -0.1
v -2.8 0.3 0
v -2.8 0.3 -0.1
v -2.7 0.3 0
v -2.7 0.3 -0.1
v -2.4 0.3 0
v -2.4 0.3 -0.1
v -2.1 0.3 0
v -2.1 0.3 -0.1
v -3.1 0.1 0
v -3.1 0.1 -0.1
v -3 0.1 0
v -3 0.1 -0.1
v -2.7 0.1 0
v -2.7 0.1 -0.1
v -2.5 0.1 0
v -2.5 0.1 -0.1
v -3.4 0 0
v -3.4 0 -0.1
v -3.2 0 0
v -3.2 0 -0.1
v -3.1 0 0
v -3.1 0 -0.1
v -4.1 0.7 0.1
v -2.7 0.7 0.1
v -4.1 0.6 0.1
v -3.7 0.6 0.1
v -3.2 0.6 0.1
v -2.7 0.6 0.1
v -3.7 0.5 0.1
v -3.2 0.5 0.1
v -2.7 0.5 0.1
v -4 0.8 0
v -3.9 0.8 0
v -3.8 0.8 0
v -3.7 0.8 0
v -3.6 0.8 0
v -3.5 0.8 0
v -3.4 0.8 0
v -3.3 0.8 0
v -3.2 0.8 0
v -3.1 0.8 0
v -3 0.8 0
v -2.9 0.8 0
v -2.8 0.8 0
v -2.7 0.8 0
v -2.5 0.8 0
v -2 0.8 0
v -4.5 0.7 0
v -4.4 0.7 0
v -4.3 0.7 0
v -4.2 0.7 0
v -4.1 0.7 0
v -4 0.7 0
v -3.9 0.7 0
v -3.8 0.7 0
v -3.7 0.7 0
v -3.6 0.7 0
v -3.5 0.7 0
v -3.4 0.7 0
v -3.3 0.7 0
v -3.2 0.7 0
v -3.1 0.7 0
v -3 0.7 0
v -2.9 0.7 0
v -2.8 0.7 0
v -2.7 0.7 0
v -2.5 0.7 0
v -2.2 0.7 0
v -2.1 0.7 0
v -4.5 0.6 0
v -4.4 0.6 0
v -4.3 0.6 0
v -4.2 0.6 0
v -4.1 0.6 0
v -3.7 0.6 0
v -2.7 0.6 0
v -2.6 0.6 0
v -2.2 0.6 0
v -2.1 0.6 0
v -2 0.6 0
v -4.2 0.5 0
v -3.8 0.5 0
v -3.7 0.5 0
v -3.2 0.5 0
v -2.9 0.5 0
v -2.7 0.5 0
v -2.6 0.5 0
v -2.4 0.5 0
v -3.8 0.4 0
v -3.3 0.4 0
v -3.1 0.4 0
v -3 0.4 0
v -2.9 0.4 0
v -2.8 0.4 0
v -2.7 0.4 0
v -2.6 0.4 0
v -2.5 0.4 0
v -2.4 0.4 0
v -2.8 0.3 0
v -2.7 0.3 0
v -2.6 0.3 0
v -2.4 0.3 0
v -2.1 0.3 0
v -3.4 0.2 0
v -3.3 0.2 0
v -3.2 0.1 0
v -3.1 0.1 0
v -3 0.1 0
v -2.7 0.1 0
v -2.5 0.1 0
v -3.4 0 0
v -3.2 0 0
v -3.1 0 0
v -4 0.8 -0.1
v -3.9 0.8 -0.1
v -3.8 0.8 -0.1
v -3.7 0.8 -0.1
v -3.6 0.8 -0.1
v -3.5 0.8 -0.1
v -3.4 0.8 -0.1
v -3.3 0.8 -0.1
v -3.2 0.8 -0.1
v -3.1 0.8 -0.1
v -3 0.8 -0.1
v -2.9 0.8 -0.1
v -2.8 0.8 -0.1
v -2.7 0.8 -0.1
v -2.5 0.8 -0.1
v -2 0.8 -0.1
v -4.5 0.7 -0.1
v -4.4 0.7 -0.1
v -4.3 0.7 -0.1
v -4.2 0.7 -0.1
v -4.1 0.7 -0.1
v -4 0.7 -0.1
v -3.9 0.7 -0.1
v -3.8 0.7 -0.1
v -3.7 0.7 -0.1
v -3.6 0.7 -0.1
v -3.5 0.7 -0.1
v -3.4 0.7 -0.1
v -3.3 0.7 -0.1
v -3.2 0.7 -0.1
v -3.1 0.7 -0.1
v -3 0.7 -0.1
v -2.9 0.7 -0.1
v -2.8 0.7 -0.1
v -2.7 0.7 -0.1
v -2.5 0.7 -0.1
v -2.2 0.7 -0.1
v -2.1 0.7 -0.1
v -4.5 0.6 -0.1
v -4.4 0.6 -0.1
v -4.3 0.6 -0.1
v -4.2 0.6 -0.1
v -4.1 0.6 -0.1
v -3.7 0.6 -0.1
v -2.7 0.6 -0.1
v -2.6 0.6 -0.1
v -2.2 0.6 -0.1
v -2.1 0.6 -0.1
v -2 0.6 -0.1
v -4.2 0.5 -0.1
v -3.8 0.5 -0.1
v -3.7 0.5 -0.1
v -3.2 0.5 -0.1
v -2.9 0.5 -0.1
v -2.7 0.5 -0.1
v -2.6 0.5 -0.1
v -2.4 0.5 -0.1
v -3.8 0.4 -0.1
v -3.3 0.4 -0.1
v -3.1 0.4 -0.1
v -3 0.4 -0.1
v -2.9 0.4 -0.1
v -2.8 0.4 -0.1
v -2.7 0.4 -0.1
v -2.6 0.4 -0.1
v -2.5 0.4 -0.1
v -2.4 0.4 -0.1
v -2.8 0.3 -0.1
v -2.7 0.3 -0.1
v -2.6 0.3 -0.1
v -2.4 0.3 -0.1
v -2.1 0.3 -0.1
v -3.4 0.2 -0.1
v -3.3 0.2 -0.1
v -3.2 0.1 -0.1
v -3.1 0.1 -0.1
v -3 0.1 -0.1
v -2.7 0.1 -0.1
v -2.5 0.1 -0.1
v -3.4 0 -0.1
v -3.2 0 -0.1
v -3.1 0 -0.1
v -4.1 0.7 -0.2
v -2.7 0.7 -0.2
v -4.1 0.6 -0.2
v -3.7 0.6 -0.2
v -3.2 0.6 -0.2
v -2.7 0.6 -0.2
v -3.7 0.5 -0.2
v -3.2 0.5 -0.2
v -2.7 0.5 -0.2
v -4.5 0.7 0
v -4.5 0.6 0
v -4.5 0.7 -0.1
v -4.5 0.6 -0.1
v -4.2 0.6 0
v -4.2 0.5 0
v -4.2 0.6 -0.1
v -4.2 0.5 -0.1
v -4.1 0.7 0.1
v -4.1 0.6 0.1
v -4.1 0.7 0
v -4.1 0.6 0
v -4.1 0.7 -0.1
v -4.1 0.6 -0.1
v -4.1 0.7 -0.2
v -4.1 0.6 -0.2
v -4 0.8 0
v -4 0.7 0
v -4 0.8 -0.1
v -4 0.7 -0.1
v -3.8 0.5 0
v -3.8 0.4 0
v -3.8 0.5 -0.1
v -3.8 0.4 -0.1
v -3.7 0.6 0.1
v -3.7 0.5 0.1
v -3.7 0.6 0
v -3.7 0.5 0
v -3.7 0.6 -0.1
v -3.7 0.5 -0.1
v -3.7 0.6 -0.2
v -3.7 0.5 -0.2
v -3.4 0.2 0
v -3.4 0 0
v -3.4 0.2 -0.1
v -3.4 0 -0.1
v -3.3 0.4 0
v -3.3 0.2 0
v -3.3 0.4 -0.1
v -3.3 0.2 -0.1
v -2.8 0.4 0
v -2.8 0.3 0
v -2.8 0.4 -0.1
v -2.8 0.3 -0.1
v -2.7 0.3 0
v -2.7 0.1 0
v -2.7 0.3 -0.1
v -2.7 0.1 -0.1
v -2.6 0.4 0
v -2.6 0.3 0
v -2.6 0.4 -0.1
v -2.6 0.3 -0.1
v -2.5 0.8 0
v -2.5 0.7 0
v -2.5 0.8 -0.1
v -2.5 0.7 -0.1
v -2.4 0.4 0
v -2.4 0.3 0
v -2.4 0.4 -0.1
v -2.4 0.3 -0.1
v -3.1 0.1 0
v -3.1 0 0
v -3.1 0.1 -0.1
v -3.1 0 -0.1
v -3 0.4 0
v -3 0.1 0
v -3 0.4 -0.1
v -3 0.1 -0.1
v -2.7 0.7 0.1
v -2.7 0.6 0.1
v -2.7 0.5 0.1
v -2.7 0.8 0
v -2.7 0.7 0
v -2.7 0.6 0
v -2.7 0.5 0
v -2.7 0.4 0
v -2.7 0.3 0
v -2.7 0.8 -0.1
v -2.7 0.7 -0.1
v -2.7 0.6 -0.1
v -2.7 0.5 -0.1
v -2.7 0.4 -0.1
v -2.7 0.3 -0.1
v -2.7 0.7 -0.2
v -2.7 0.6 -0.2
v -2.7 0.5 -0.2
v -2.5 0.4 0
v -2.5 0.1 0
v -2.5 0.4 -0.1
v -2.5 0.1 -0.1
v -2.1 0.6 0
v -2.1 0.3 0
v -2.1 0.6 -0.1
v -2.1 0.3 -0.1
v -2 0.8 0
v -2 0.6 0
v -2 0.8 -0.1
v -2 0.6 -0.1

# faces
f 3/3/1 2/3/1 1/3/1
f 4/3/1 2/3/1 3/3/1
f 5/4/1 4/4/1 3/4/1
f 6/4/1 4/4/1 5/4/1
f 7/3/1 6/3/1 5/3/1
f 8/3/1 6/3/1 7/3/1
f 9/4/1 8/4/1 7/4/1
f 10/4/1 8/4/1 9/4/1
f 11/3/1 10/3/1 9/3/1
f 12/3/1 10/3/1 11/3/1
f 13/4/1 12/4/1 11/4/1
f 14/4/1 12/4/1 13/4/1
f 15/3/1 14/3/1 13/3/1
f 16/3/1 14/3/1 15/3/1
f 17/4/1 16/4/1 15/4/1
f 18/4/1 16/4/1 17/4/1
f 19/3/1 18/3/1 17/3/1
f 20/3/1 18/3/1 19/3/1
f 21/4/1 20/4/1 19/4/1
f 22/4/1 20/4/1 21/4/1
f 23/3/1 22/3/1 21/3/1
f 24/3/1 22/3/1 23/3/1
f 25/4/1 24/4/1 23/4/1
f 26/4/1 24/4/1 25/4/1
f 27/3/1 26/3/1 25/3/1
f 28/3/1 26/3/1 27/3/1
f 31/2/1 30/2/1 29/2/1
f 32/2/1 30/2/1 31/2/1
f 35/4/1 34/4/1 33/4/1
f 36/4/1 34/4/1 35/4/1
f 37/3/1 36/3/1 35/3/1
f 38/3/1 36/3/1 37/3/1
f 39/4/1 38/4/1 37/4/1
f 40/4/1 38/4/1 39/4/1
f 42/3/1 40/3/1 39/3/1
f 43/3/1 40/3/1 42/3/1
f 45/4/1 43/4/1 42/4/1
f 45/3/1 42/3/1 41/3/1
f 46/3/1 44/3/1 43/3/1
f 46/4/1 43/4/1 45/4/1
f 47/3/1 45/3/1 41/3/1
f 48/3/1 44/3/1 46/3/1
f 49/3/1 47/3/1 41/3/1
f 50/3/1 44/3/1 48/3/1
f 51/3/1 49/3/1 41/3/1
f 52/3/1 44/3/1 50/3/1
f 53/3/1 51/3/1 41/3/1
f 54/3/1 44/3/1 52/3/1
f 55/3/1 53/3/1 41/3/1
f 56/3/1 44/3/1 54/3/1
f 57/3/1 55/3/1 41/3/1
f 58/3/1 44/3/1 56/3/1
f 59/3/1 57/3/1 41/3/1
f 60/3/1 44/3/1 58/3/1
f 61/3/1 59/3/1 41/3/1
f 62/3/1 44/3/1 60/3/1
f 63/3/1 61/3/1 41/3/1
f 64/3/1 44/3/1 62/3/1
f 65/3/1 63/3/1 41/3/1
f 66/3/1 44/3/1 64/3/1
f 67/3/1 65/3/1 41/3/1
f 68/3/1 44/3/1 66/3/1
f 69/3/1 67/3/1 41/3/1
f 70/3/1 44/3/1 68/3/1
f 71/3/1 69/3/1 41/3/1
f 72/3/1 69/3/1 71/3/1
f 73/3/1 44/3/1 70/3/1
f 74/3/1 44/3/1 73/3/1
f 75/2/1 73/2/1 72/2/1
f 76/2/1 73/2/1 75/2/1
f 79/4/1 78/4/1 77/4/1
f 80/4/1 78/4/1 79/4/1
f 83/2/1 82/2/1 81/2/1
f 84/2/1 82/2/1 83/2/1
f 85/4/2 86/4/2 87/4/2
f 87/4/2 86/4/2 88/4/2
f 87/3/2 88/3/2 89/3/2
f 89/3/2 88/3/2 90/3/2
f 89/4/2 90/4/2 91/4/2
f 91/4/2 90/4/2 92/4/2
f 93/3/2 94/3/2 97/3/2
f 97/3/2 94/3/2 98/3/2
f 95/3/2 96/3/2 99/3/2
f 99/3/2 96/3/2 100/3/2
f 101/2/2 102/2/2 103/2/2
f 103/2/2 102/2/2 104/2/2
f 105/4/2 106/4/2 107/4/2
f 107/4/2 106/4/2 108/4/2
f 109/2/2 110/2/2 113/2/2
f 113/2/2 110/2/2 114/2/2
f 111/2/2 112/2/2 115/2/2
f 115/2/2 112/2/2 116/2/2
f 113/4/2 114/4/2 117/4/2
f 115/4/2 116/4/2 118/4/2
f 113/4/2 117/4/2 119/4/2
f 119/4/2 117/4/2 120/4/2
f 118/4/2 116/4/2 121/4/2
f 121/4/2 116/4/2 122/4/2
f 123/1/2 124/1/2 125/1/2
f 125/1/2 124/1/2 126/1/2
f 127/1/2 128/1/2 129/1/2
f 129/1/2 128/1/2 130/1/2
f 129/4/2 130/4/2 131/4/2
f 131/4/2 130/4/2 132/4/2
f 133/4/2 134/4/2 135/4/2
f 135/4/2 134/4/2 136/4/2
f 137/4/2 138/4/2 139/4/2
f 139/4/2 138/4/2 140/4/2
f 141/4/2 142/4/2 143/4/2
f 143/4/2 142/4/2 144/4/2
f 145/1/2 146/1/2 147/1/2
f 147/1/2 146/1/2 148/1/2
f 149/1/2 150/1/2 151/1/2
f 151/1/2 150/1/2 152/1/2
f 153/4/2 154/4/2 155/4/2
f 155/4/2 154/4/2 156/4/2
f 157/2/2 158/2/2 159/2/2
f 159/2/2 158/2/2 160/2/2
f 159/1/2 160/1/2 161/1/2
f 161/1/2 160/1/2 162/1/2
f 165/3/3 164/3/3 163/3/3
f 166/3/3 164/3/3 165/3/3
f 167/3/3 164/3/3 166/3/3
f 168/3/3 164/3/3 167/3/3
f 169/2/3 167/2/3 166/2/3
f 170/4/3 168/4/3 167/4/3
f 170/2/3 167/2/3 169/2/3
f 171/4/3 168/4/3 170/4/3
f 193/3/3 173/3/3 172/3/3
f 194/4/3 174/4/3 173/4/3
f 194/3/3 173/3/3 193/3/3
f 195/3/3 175/3/3 174/3/3
f 195/4/3 174/4/3 194/4/3
f 196/4/3 176/4/3 175/4/3
f 196/3/3 175/3/3 195/3/3
f 197/3/3 177/3/3 176/3/3
f 197/4/3 176/4/3 196/4/3
f 198/4/3 178/4/3 177/4/3
f 198/3/3 177/3/3 197/3/3
f 199/3/3 179/3/3 178/3/3
f 199/4/3 178/4/3 198/4/3
f 200/4/3 180/4/3 179/4/3
f 200/3/3 179/3/3 199/3/3
f 201/3/3 181/3/3 180/3/3
f 201/4/3 180/4/3 200/4/3
f 202/4/3 182/4/3 181/4/3
f 202/3/3 181/3/3 201/3/3
f 203/3/3 183/3/3 182/3/3
f 203/4/3 182/4/3 202/4/3
f 204/4/3 184/4/3 183/4/3
f 204/3/3 183/3/3 203/3/3
f 205/3/3 185/3/3 184/3/3
f 205/4/3 184/4/3 204/4/3
f 206/3/3 185/3/3 205/3/3
f 207/2/3 187/2/3 186/2/3
f 208/2/3 187/2/3 207/2/3
f 209/2/3 187/2/3 208/2/3
f 210/4/3 189/4/3 188/4/3
f 211/3/3 190/3/3 189/3/3
f 211/4/3 189/4/3 210/4/3
f 212/4/3 191/4/3 190/4/3
f 212/3/3 190/3/3 211/3/3
f 213/3/3 192/3/3 191/3/3
f 213/4/3 191/4/3 212/4/3
f 214/3/3 192/3/3 213/3/3
f 216/2/3 208/2/3 207/2/3
f 216/2/3 207/2/3 206/2/3
f 217/2/3 208/2/3 216/2/3
f 218/1/3 209/1/3 208/1/3
f 218/2/3 208/2/3 217/2/3
f 219/2/3 187/2/3 209/2/3
f 219/1/3 209/1/3 218/1/3
f 220/2/3 187/2/3 219/2/3
f 221/4/3 215/4/3 214/4/3
f 221/4/3 214/4/3 213/4/3
f 222/4/3 215/4/3 221/4/3
f 223/4/3 215/4/3 222/4/3
f 226/4/3 217/4/3 216/4/3
f 227/1/3 218/1/3 217/1/3
f 227/1/3 219/1/3 218/1/3
f 227/4/3 217/4/3 226/4/3
f 228/1/3 219/1/3 227/1/3
f 229/1/3 225/1/3 224/1/3
f 229/1/3 223/1/3 222/1/3
f 229/1/3 224/1/3 223/1/3
f 230/1/3 225/1/3 229/1/3
f 231/1/3 225/1/3 230/1/3
f 232/1/3 225/1/3 231/1/3
f 233/4/3 226/4/3 225/4/3
f 233/1/3 225/1/3 232/1/3
f 233/4/3 228/4/3 227/4/3
f 233/4/3 227/4/3 226/4/3
f 234/4/3 228/4/3 233/4/3
f 235/4/3 228/4/3 234/4/3
f 236/4/3 228/4/3 235/4/3
f 237/4/3 228/4/3 236/4/3
f 238/1/3 219/1/3 228/1/3
f 238/4/3 228/4/3 237/4/3
f 239/4/3 235/4/3 234/4/3
f 240/4/3 235/4/3 239/4/3
f 241/4/3 237/4/3 236/4/3
f 242/1/3 219/1/3 238/1/3
f 243/1/3 219/1/3 242/1/3
f 245/2/3 231/2/3 230/2/3
f 246/2/3 231/2/3 245/2/3
f 246/2/3 245/2/3 244/2/3
f 247/1/3 232/1/3 231/1/3
f 247/2/3 231/2/3 246/2/3
f 248/1/3 232/1/3 247/1/3
f 249/4/3 241/4/3 240/4/3
f 250/4/3 237/4/3 241/4/3
f 250/4/3 241/4/3 249/4/3
f 251/2/3 246/2/3 244/2/3
f 252/1/3 247/1/3 246/1/3
f 252/2/3 246/2/3 251/2/3
f 253/1/3 247/1/3 252/1/3
f 254/3/4 255/3/4 275/3/4
f 255/4/4 256/4/4 276/4/4
f 275/3/4 255/3/4 276/3/4
f 256/3/4 257/3/4 277/3/4
f 276/4/4 256/4/4 277/4/4
f 257/4/4 258/4/4 278/4/4
f 277/3/4 257/3/4 278/3/4
f 258/3/4 259/3/4 279/3/4
f 278/4/4 258/4/4 279/4/4
f 259/4/4 260/4/4 280/4/4
f 279/3/4 259/3/4 280/3/4
f 260/3/4 261/3/4 281/3/4
f 280/4/4 260/4/4 281/4/4
f 261/4/4 262/4/4 282/4/4
f 281/3/4 261/3/4 282/3/4
f 262/3/4 263/3/4 283/3/4
f 282/4/4 262/4/4 283/4/4
f 263/4/4 264/4/4 284/4/4
f 283/3/4 263/3/4 284/3/4
f 264/3/4 265/3/4 285/3/4
f 284/4/4 264/4/4 285/4/4
f 265/4/4 266/4/4 286/4/4
f 285/3/4 265/3/4 286/3/4
f 266/3/4 267/3/4 287/3/4
f 286/4/4 266/4/4 287/4/4
f 287/3/4 267/3/4 288/3/4
f 268/2/4 269/2/4 289/2/4
f 289/2/4 269/2/4 290/2/4
f 290/2/4 269/2/4 291/2/4
f 270/4/4 271/4/4 292/4/4
f 271/3/4 272/3/4 293/3/4
f 292/4/4 271/4/4 293/4/4
f 272/4/4 273/4/4 294/4/4
f 293/3/4 272/3/4 294/3/4
f 273/3/4 274/3/4 295/3/4
f 294/4/4 273/4/4 295/4/4
f 295/3/4 274/3/4 296/3/4
f 289/2/4 290/2/4 298/2/4
f 288/2/4 289/2/4 298/2/4
f 298/2/4 290/2/4 299/2/4
f 290/1/4 291/1/4 300/1/4
f 299/2/4 290/2/4 300/2/4
f 291/2/4 269/2/4 301/2/4
f 300/1/4 291/1/4 301/1/4
f 301/2/4 269/2/4 302/2/4
f 296/4/4 297/4/4 303/4/4
f 295/4/4 296/4/4 303/4/4
f 303/4/4 297/4/4 304/4/4
f 304/4/4 297/4/4 305/4/4
f 298/4/4 299/4/4 308/4/4
f 299/1/4 300/1/4 309/1/4
f 300/1/4 301/1/4 309/1/4
f 308/4/4 299/4/4 309/4/4
f 309/1/4 301/1/4 310/1/4
f 306/1/4 307/1/4 311/1/4
f 304/1/4 305/1/4 311/1/4
f 305/1/4 306/1/4 311/1/4
f 311/1/4 307/1/4 312/1/4
f 312/1/4 307/1/4 313/1/4
f 313/1/4 307/1/4 314/1/4
f 307/4/4 308/4/4 315/4/4
f 314/1/4 307/1/4 315/1/4
f 309/4/4 310/4/4 315/4/4
f 308/4/4 309/4/4 315/4/4
f 315/4/4 310/4/4 316/4/4
f 316/4/4 310/4/4 317/4/4
f 317/4/4 310/4/4 318/4/4
f 318/4/4 310/4/4 319/4/4
f 310/1/4 301/1/4 320/1/4
f 319/4/4 310/4/4 320/4/4
f 316/4/4 317/4/4 321/4/4
f 321/4/4 317/4/4 322/4/4
f 318/4/4 319/4/4 323/4/4
f 320/1/4 301/1/4 324/1/4
f 324/1/4 301/1/4 325/1/4
f 312/2/4 313/2/4 327/2/4
f 327/2/4 313/2/4 328/2/4
f 326/2/4 327/2/4 328/2/4
f 313/1/4 314/1/4 329/1/4
f 328/2/4 313/2/4 329/2/4
f 329/1/4 314/1/4 330/1/4
f 322/4/4 323/4/4 331/4/4
f 323/4/4 319/4/4 332/4/4
f 331/4/4 323/4/4 332/4/4
f 326/2/4 328/2/4 333/2/4
f 328/1/4 329/1/4 334/1/4
f 333/2/4 328/2/4 334/2/4
f 334/1/4 329/1/4 335/1/4
f 336/3/4 337/3/4 338/3/4
f 338/3/4 337/3/4 339/3/4
f 339/3/4 337/3/4 340/3/4
f 340/3/4 337/3/4 341/3/4
f 339/2/4 340/2/4 342/2/4
f 340/4/4 341/4/4 343/4/4
f 342/2/4 340/2/4 343/2/4
f 343/4/4 341/4/4 344/4/4
f 347/4/5 346/4/5 345/4/5
f 348/4/5 346/4/5 347/4/5
f 351/4/5 350/4/5 349/4/5
f 352/4/5 350/4/5 351/4/5
f 355/3/5 354/3/5 353/3/5
f 356/3/5 354/3/5 355/3/5
f 359/3/5 358/3/5 357/3/5
f 360/3/5 358/3/5 359/3/5
f 363/3/5 362/3/5 361/3/5
f 364/3/5 362/3/5 363/3/5
f 367/1/5 366/1/5 365/1/5
f 368/1/5 366/1/5 367/1/5
f 371/2/5 370/2/5 369/2/5
f 372/2/5 370/2/5 371/2/5
f 375/2/5 374/2/5 373/2/5
f 376/2/5 374/2/5 375/2/5
f 379/2/5 378/2/5 377/2/5
f 380/2/5 378/2/5 379/2/5
f 383/2/5 382/2/5 381/2/5
f 384/2/5 382/2/5 383/2/5
f 387/4/5 386/4/5 385/4/5
f 388/4/5 386/4/5 387/4/5
f 391/4/5 390/4/5 389/4/5
f 392/4/5 390/4/5 391/4/5
f 395/4/5 394/4/5 393/4/5
f 396/4/5 394/4/5 395/4/5
f 399/2/5 398/2/5 397/2/5
f 400/2/5 398/2/5 399/2/5
f 403/1/5 402/1/5 401/1/5
f 404/1/5 402/1/5 403/1/5
f 405/1/6 406/1/6 407/1/6
f 407/1/6 406/1/6 408/1/6
f 409/1/6 410/1/6 411/1/6
f 411/1/6 410/1/6 412/1/6
f 413/3/6 414/3/6 417/3/6
f 414/4/6 415/4/6 418/4/6
f 417/3/6 414/3/6 418/3/6
f 418/4/6 415/4/6 419/4/6
f 416/3/6 417/3/6 422/3/6
f 422/3/6 417/3/6 423/3/6
f 420/4/6 421/4/6 426/4/6
f 426/4/6 421/4/6 427/4/6
f 423/3/6 424/3/6 428/3/6
f 424/4/6 425/4/6 429/4/6
f 428/3/6 424/3/6 429/3/6
f 429/4/6 425/4/6 430/4/6
f 431/4/6 432/4/6 433/4/6
f 433/4/6 432/4/6 434/4/6
f 435/1/6 436/1/6 437/1/6
f 437/1/6 436/1/6 438/1/6
f 439/2/6 440/2/6 441/2/6
f 441/2/6 440/2/6 442/2/6
